<svg viewBox="0 0 80 180" xmlns="http://www.w3.org/2000/svg" shape-rendering="crispEdges">
<!-- Low-res on purpose: 80x180 scaled to ~400x900 = 5px per pixel.
     Rendered with image-rendering:pixelated so every unit stays a hard square. -->

<!-- sky bands, plum -> pink -> cream horizon glow -->
<g>
  <rect x="0" y="0"   width="80" height="16" fill="#3a1a55"/>
  <rect x="0" y="16"  width="80" height="12" fill="#4e2168"/>
  <rect x="0" y="28"  width="80" height="12" fill="#6a2a78"/>
  <rect x="0" y="40"  width="80" height="12" fill="#8d3585"/>
  <rect x="0" y="52"  width="80" height="12" fill="#b34291"/>
  <rect x="0" y="64"  width="80" height="12" fill="#d6549d"/>
  <rect x="0" y="76"  width="80" height="12" fill="#f26aa8"/>
  <rect x="0" y="88"  width="80" height="12" fill="#ff8fc4"/>
  <rect x="0" y="100" width="80" height="10" fill="#ffa9d1"/>
  <rect x="0" y="110" width="80" height="8"  fill="#ffc2e0"/>
  <rect x="0" y="118" width="80" height="8"  fill="#ffd9ec"/>
</g>

<!-- stars -->
<g fill="#fff6e8">
  <rect x="5"  y="4"  width="1" height="1"/>
  <rect x="12" y="9"  width="1" height="1"/>
  <rect x="30" y="12" width="1" height="1"/>
  <rect x="38" y="6"  width="1" height="1"/>
  <rect x="52" y="4"  width="1" height="1"/>
  <rect x="68" y="7"  width="1" height="1"/>
  <rect x="75" y="14" width="1" height="1"/>
  <rect x="34" y="18" width="1" height="1"/>
  <rect x="41" y="28" width="1" height="1"/>
  <rect x="70" y="26" width="1" height="1"/>
  <rect x="63" y="31" width="1" height="1"/>
  <rect x="17" y="33" width="1" height="1"/>
  <rect x="48" y="36" width="1" height="1"/>
  <rect x="72" y="42" width="1" height="1"/>
  <rect x="7"  y="45" width="1" height="1"/>
  <rect x="58" y="44" width="1" height="1"/>
</g>
<g fill="#ffe27a">
  <rect x="23" y="3"  width="1" height="1"/>
  <rect x="45" y="15" width="1" height="1"/>
  <rect x="60" y="11" width="1" height="1"/>
  <rect x="27" y="24" width="1" height="1"/>
  <rect x="55" y="22" width="1" height="1"/>
  <rect x="25" y="40" width="1" height="1"/>
  <rect x="39" y="48" width="1" height="1"/>
</g>

<!-- sparkles (plus-shaped) -->
<g fill="#fff6e8">
  <rect x="30" y="32" width="1" height="3"/><rect x="29" y="33" width="3" height="1"/>
  <rect x="50" y="28" width="1" height="3"/><rect x="49" y="29" width="3" height="1"/>
  <rect x="66" y="18" width="1" height="3"/><rect x="65" y="19" width="3" height="1"/>
</g>

<!-- moon: kept clear of the top edge so a full-bleed `cover` crop on taller
     phones doesn't slice it off -->
<g fill="#fff6e8">
  <rect x="12" y="22" width="4"  height="1"/>
  <rect x="10" y="23" width="8"  height="1"/>
  <rect x="9"  y="24" width="10" height="1"/>
  <rect x="8"  y="25" width="12" height="6"/>
  <rect x="9"  y="31" width="10" height="1"/>
  <rect x="10" y="32" width="8"  height="1"/>
  <rect x="12" y="33" width="4"  height="1"/>
</g>
<g fill="#ffe27a">
  <rect x="17" y="28" width="3" height="1"/>
  <rect x="16" y="29" width="4" height="1"/>
  <rect x="15" y="30" width="5" height="1"/>
  <rect x="14" y="31" width="5" height="1"/>
  <rect x="13" y="32" width="5" height="1"/>
  <rect x="13" y="33" width="3" height="1"/>
</g>

<!-- clouds: highlight rows on top, body rows beneath -->
<g fill="#ffe3f2">
  <rect x="50" y="30" width="8"  height="1"/>
  <rect x="48" y="31" width="14" height="1"/>
  <rect x="8"  y="58" width="6"  height="1"/>
  <rect x="6"  y="59" width="12" height="1"/>
  <rect x="58" y="74" width="8"  height="1"/>
  <rect x="56" y="75" width="14" height="1"/>
</g>
<g fill="#ffd1e8">
  <rect x="46" y="32" width="20" height="2"/>
  <rect x="4"  y="60" width="18" height="2"/>
  <rect x="54" y="76" width="20" height="2"/>
</g>

<!-- far hills -->
<g fill="#a34490">
  <rect x="0"  y="120" width="10" height="18"/>
  <rect x="10" y="117" width="8"  height="21"/>
  <rect x="18" y="114" width="8"  height="24"/>
  <rect x="26" y="116" width="8"  height="22"/>
  <rect x="34" y="112" width="10" height="26"/>
  <rect x="44" y="115" width="8"  height="23"/>
  <rect x="52" y="118" width="10" height="20"/>
  <rect x="62" y="115" width="8"  height="23"/>
  <rect x="70" y="119" width="10" height="19"/>
</g>

<!-- near hills -->
<g fill="#6a2a78">
  <rect x="0"  y="128" width="14" height="52"/>
  <rect x="14" y="125" width="10" height="55"/>
  <rect x="24" y="130" width="12" height="50"/>
  <rect x="36" y="126" width="12" height="54"/>
  <rect x="48" y="131" width="10" height="49"/>
  <rect x="58" y="127" width="10" height="53"/>
  <rect x="68" y="130" width="12" height="50"/>
</g>

<!-- little houses with lit windows -->
<g>
  <rect x="26" y="121" width="9" height="3" fill="#ff4f9a"/>
  <rect x="27" y="124" width="7" height="6" fill="#5b2470"/>
  <rect x="29" y="126" width="2" height="2" fill="#ffe27a"/>
  <rect x="70" y="122" width="8" height="3" fill="#ff4f9a"/>
  <rect x="71" y="125" width="6" height="5" fill="#5b2470"/>
  <rect x="73" y="127" width="2" height="2" fill="#ffe27a"/>
</g>

<!-- trees -->
<g fill="#3a1a55">
  <rect x="4"  y="123" width="6" height="5"/><rect x="6"  y="128" width="2" height="3"/>
  <rect x="17" y="120" width="6" height="5"/><rect x="19" y="125" width="2" height="3"/>
  <rect x="40" y="121" width="6" height="5"/><rect x="42" y="126" width="2" height="3"/>
  <rect x="61" y="122" width="6" height="5"/><rect x="63" y="127" width="2" height="3"/>
</g>

<!-- foreground field: darkens toward the viewer for depth -->
<rect x="0" y="140" width="80" height="2"  fill="#5b2470"/>
<rect x="0" y="142" width="80" height="10" fill="#4a1f60"/>
<rect x="0" y="152" width="80" height="12" fill="#43195a"/>
<rect x="0" y="164" width="80" height="16" fill="#38154e"/>

<!-- grass tufts along the horizon edge -->
<g fill="#6a2a78">
  <rect x="3"  y="138" width="1" height="2"/>
  <rect x="9"  y="139" width="1" height="1"/>
  <rect x="16" y="138" width="1" height="2"/>
  <rect x="22" y="139" width="1" height="1"/>
  <rect x="29" y="138" width="1" height="2"/>
  <rect x="35" y="139" width="1" height="1"/>
  <rect x="42" y="138" width="1" height="2"/>
  <rect x="48" y="139" width="1" height="1"/>
  <rect x="55" y="138" width="1" height="2"/>
  <rect x="61" y="139" width="1" height="1"/>
  <rect x="68" y="138" width="1" height="2"/>
  <rect x="74" y="139" width="1" height="1"/>
</g>

<!-- field flowers: stem, bloom, gold centre -->
<g>
  <g fill="#6a2a78">
    <rect x="10" y="150" width="1" height="4"/>
    <rect x="26" y="160" width="1" height="4"/>
    <rect x="44" y="154" width="1" height="4"/>
    <rect x="58" y="166" width="1" height="4"/>
    <rect x="70" y="157" width="1" height="4"/>
    <rect x="34" y="172" width="1" height="4"/>
    <rect x="16" y="168" width="1" height="4"/>
  </g>
  <g fill="#ff8fc4">
    <rect x="9"  y="148" width="3" height="2"/>
    <rect x="25" y="158" width="3" height="2"/>
    <rect x="43" y="152" width="3" height="2"/>
    <rect x="57" y="164" width="3" height="2"/>
    <rect x="69" y="155" width="3" height="2"/>
    <rect x="33" y="170" width="3" height="2"/>
    <rect x="15" y="166" width="3" height="2"/>
  </g>
  <g fill="#ffe27a">
    <rect x="10" y="149" width="1" height="1"/>
    <rect x="26" y="159" width="1" height="1"/>
    <rect x="44" y="153" width="1" height="1"/>
    <rect x="58" y="165" width="1" height="1"/>
    <rect x="70" y="156" width="1" height="1"/>
    <rect x="34" y="171" width="1" height="1"/>
    <rect x="16" y="167" width="1" height="1"/>
  </g>
</g>

<!-- corner bushes frame the bottom of the scene -->
<g fill="#2a0f3f">
  <rect x="0"  y="170" width="16" height="10"/>
  <rect x="2"  y="168" width="12" height="2"/>
  <rect x="5"  y="166" width="7"  height="2"/>
  <rect x="8"  y="164" width="3"  height="2"/>
  <rect x="64" y="172" width="16" height="8"/>
  <rect x="66" y="170" width="12" height="2"/>
  <rect x="68" y="168" width="8"  height="2"/>
  <rect x="71" y="166" width="3"  height="2"/>
</g>
<g fill="#5b2470">
  <rect x="8"  y="164" width="3" height="1"/>
  <rect x="5"  y="166" width="3" height="1"/>
  <rect x="2"  y="168" width="3" height="1"/>
  <rect x="71" y="166" width="3" height="1"/>
  <rect x="68" y="168" width="3" height="1"/>
  <rect x="66" y="170" width="3" height="1"/>
</g>

<!-- fireflies -->
<g fill="#ffe27a">
  <rect x="52" y="147" width="1" height="1"/>
  <rect x="21" y="156" width="1" height="1"/>
  <rect x="63" y="175" width="1" height="1"/>
  <rect x="38" y="163" width="1" height="1"/>
</g>
</svg>
